<svg width="24" height="17" viewBox="0 0 24 17" fill="none" xmlns="http://www.w3.org/2000/svg">
<path fill-rule="evenodd" clip-rule="evenodd" d="M11.6459 1.52317C10.0425 1.52317 9.8822 1.69325 9.05237 1.69325C8.3612 1.69325 6.28554 0 5.24879 0C4.21204 0 3.00087 0.609917 3.00087 2.37033V4.40158C3.00304 4.93458 3.19587 6.56825 3.95421 6.13167C3.05829 7.19117 2.96837 8.42725 2.98029 9.62325C2.7387 9.69258 2.49279 9.77167 2.25337 9.85292C1.51237 10.1064 0.725872 10.4292 0.371622 10.6589C0.190612 10.7759 0.0634686 10.9599 0.0181629 11.1706C-0.0271427 11.3813 0.0131001 11.6013 0.130038 11.7823C0.246977 11.9633 0.431032 12.0905 0.641713 12.1358C0.852395 12.1811 1.07244 12.1409 1.25346 12.0239C1.42246 11.9145 2.03454 11.6448 2.77879 11.3902L3.02579 11.3089C3.07562 11.778 3.2002 12.2081 3.38545 12.5981L3.35945 12.6122C2.91529 12.8462 2.50362 13.1159 2.24146 13.2871L2.11904 13.3673C1.93803 13.4842 1.81089 13.6682 1.76558 13.8789C1.72027 14.0896 1.76052 14.3097 1.87746 14.4907C1.99439 14.6717 2.17845 14.7988 2.38913 14.8441C2.59981 14.8894 2.81986 14.8492 3.00087 14.7323L3.14279 14.6391C3.40821 14.4658 3.74837 14.2437 4.11887 14.0487C4.20554 14.0024 4.28895 13.9606 4.36912 13.923C6.24329 15.6812 9.6092 16.25 11.6459 16.25C13.6825 16.25 17.0485 15.6812 18.9226 13.923C19.0021 13.9606 19.0855 14.0024 19.1729 14.0487C19.5434 14.2437 19.8835 14.4658 20.149 14.6391L20.2909 14.7323C20.4719 14.8492 20.6919 14.8894 20.9026 14.8441C21.1133 14.7988 21.2973 14.6717 21.4143 14.4907C21.5312 14.3097 21.5715 14.0896 21.5262 13.8789C21.4809 13.6682 21.3537 13.4842 21.1727 13.3673L21.0503 13.2871C20.6883 13.0449 20.3152 12.8197 19.9323 12.6122L19.9063 12.5981C20.0915 12.2081 20.2161 11.778 20.266 11.3089L20.513 11.3902C21.2572 11.6448 21.8693 11.9145 22.0394 12.0239C22.2203 12.1343 22.4372 12.1696 22.6438 12.1223C22.8504 12.075 23.0303 11.9489 23.1452 11.7708C23.2602 11.5927 23.3009 11.3768 23.2589 11.1691C23.2168 10.9613 23.0953 10.7783 22.9201 10.6589C22.5659 10.4292 21.7794 10.1064 21.0395 9.85292C20.7985 9.77066 20.5558 9.69373 20.3115 9.62217C20.3245 8.42617 20.2335 7.19117 19.3365 6.13167C20.0948 6.56825 20.2898 4.93458 20.2909 4.4005V2.37033C20.2909 0.609917 19.0808 0 18.043 0C17.0062 0 14.9305 1.69325 14.2405 1.69325C13.4095 1.69325 13.2492 1.52317 11.6459 1.52317ZM10.9146 11.4833C11.1335 11.4086 11.3924 11.375 11.6459 11.375C11.8994 11.375 12.1583 11.4086 12.3782 11.4833C12.4865 11.5202 12.6165 11.5787 12.7335 11.6718C12.8137 11.7324 12.8792 11.8101 12.9254 11.8994C12.9715 11.9886 12.997 12.0871 13 12.1875C13 12.4367 12.8495 12.61 12.7335 12.7032C12.6176 12.7963 12.4855 12.8548 12.3782 12.8917C12.1583 12.9664 11.8994 13 11.6459 13C11.3924 13 11.1335 12.9664 10.9146 12.8917C10.786 12.8495 10.6654 12.7858 10.5582 12.7032C10.478 12.6426 10.4125 12.5649 10.3664 12.4756C10.3203 12.3864 10.2947 12.2879 10.2917 12.1875C10.2917 11.9383 10.4423 11.765 10.5582 11.6718C10.6741 11.5787 10.8074 11.5202 10.9146 11.4833ZM13.9967 8.125C14.1451 7.878 14.4365 7.58333 14.8742 7.58333C15.3119 7.58333 15.6044 7.878 15.7517 8.125C15.9055 8.38392 15.9792 8.69592 15.9792 9.00575C15.9792 9.31558 15.9055 9.6265 15.7517 9.88433C15.6044 10.1324 15.3119 10.4271 14.8742 10.4271C14.4365 10.4271 14.1451 10.1324 13.9967 9.88542C13.844 9.61764 13.7655 9.31398 13.7692 9.00575C13.7692 8.69592 13.8429 8.38392 13.9967 8.12608M7.54004 8.12608C7.68845 7.87908 7.97987 7.58442 8.41754 7.58442C8.8552 7.58442 9.1477 7.87908 9.29504 8.12608C9.44887 8.385 9.52254 8.697 9.52254 9.00683C9.52254 9.31667 9.44887 9.62758 9.29504 9.88542C9.1477 10.1335 8.8552 10.4282 8.41754 10.4282C7.97987 10.4282 7.68845 10.1335 7.54004 9.8865C7.38733 9.61872 7.3088 9.31507 7.31254 9.00683C7.31254 8.697 7.3862 8.38392 7.54004 8.12608Z" fill="#4F4F4F"/>
</svg>
