<svg width="22" height="20" viewBox="0 0 22 20" fill="none" xmlns="http://www.w3.org/2000/svg">
<path d="M11.9999 10.5999V6.9999C11.9999 6.71657 11.9039 6.47924 11.7119 6.2879C11.5199 6.09657 11.2826 6.00057 10.9999 5.9999C10.7172 5.99924 10.4799 6.09524 10.2879 6.2879C10.0959 6.48057 9.9999 6.7179 9.9999 6.9999V10.9749C9.9999 11.1082 10.0249 11.2376 10.0749 11.3629C10.1249 11.4882 10.1999 11.6006 10.2999 11.6999L13.0999 14.4999C13.2832 14.6832 13.5166 14.7749 13.7999 14.7749C14.0832 14.7749 14.3166 14.6832 14.4999 14.4999C14.6832 14.3166 14.7749 14.0832 14.7749 13.7999C14.7749 13.5166 14.6832 13.2832 14.4999 13.0999L11.9999 10.5999ZM10.9999 19.9999C9.7499 19.9999 8.57924 19.7626 7.4879 19.2879C6.39657 18.8132 5.44657 18.1716 4.6379 17.3629C3.82924 16.5542 3.18757 15.6042 2.7129 14.5129C2.23824 13.4216 2.00057 12.2506 1.9999 10.9999C1.99924 9.74924 2.2369 8.57857 2.7129 7.4879C3.1889 6.39724 3.83024 5.44724 4.6369 4.6379C5.44357 3.82857 6.39357 3.1869 7.4869 2.7129C8.58024 2.2389 9.75124 2.00124 10.9999 1.9999C12.2486 1.99857 13.4196 2.23624 14.5129 2.7129C15.6062 3.18957 16.5562 3.83124 17.3629 4.6379C18.1696 5.44457 18.8112 6.39457 19.2879 7.4879C19.7646 8.58124 20.0019 9.7519 19.9999 10.9999C19.9979 12.2479 19.7606 13.4189 19.2879 14.5129C18.8152 15.6069 18.1736 16.5569 17.3629 17.3629C16.5522 18.1689 15.6022 18.8106 14.5129 19.2879C13.4236 19.7652 12.2526 20.0026 10.9999 19.9999ZM1.0499 5.2999C0.866569 5.11657 0.774902 4.88324 0.774902 4.5999C0.774902 4.31657 0.866569 4.08324 1.0499 3.8999L3.8999 1.0499C4.08324 0.866569 4.31657 0.774902 4.5999 0.774902C4.88324 0.774902 5.11657 0.866569 5.2999 1.0499C5.48324 1.23324 5.5749 1.46657 5.5749 1.7499C5.5749 2.03324 5.48324 2.26657 5.2999 2.4499L2.4499 5.2999C2.26657 5.48324 2.03324 5.5749 1.7499 5.5749C1.46657 5.5749 1.23324 5.48324 1.0499 5.2999ZM20.9499 5.2999C20.7666 5.48324 20.5332 5.5749 20.2499 5.5749C19.9666 5.5749 19.7332 5.48324 19.5499 5.2999L16.6999 2.4499C16.5166 2.26657 16.4249 2.03324 16.4249 1.7499C16.4249 1.46657 16.5166 1.23324 16.6999 1.0499C16.8832 0.866569 17.1166 0.774902 17.3999 0.774902C17.6832 0.774902 17.9166 0.866569 18.0999 1.0499L20.9499 3.8999C21.1332 4.08324 21.2249 4.31657 21.2249 4.5999C21.2249 4.88324 21.1332 5.11657 20.9499 5.2999Z" fill="#4F4F4F"/>
</svg>
