<svg width="32" height="32" viewBox="0 0 32 32" fill="none" xmlns="http://www.w3.org/2000/svg">
<path d="M21.3335 8.096C22.9411 9.02416 24.2786 10.3558 25.2139 11.9592C26.1492 13.5627 26.6498 15.3825 26.6663 17.2387C26.6828 19.0949 26.2146 20.9233 25.308 22.5431C24.4014 24.1629 23.0878 25.5181 21.497 26.4748C19.9062 27.4314 18.0932 27.9563 16.2374 27.9976C14.3816 28.0389 12.5471 27.5952 10.9153 26.7103C9.28351 25.8254 7.91088 24.53 6.9331 22.9521C5.95533 21.3742 5.40626 19.5684 5.34016 17.7133L5.3335 17.3333L5.34016 16.9533C5.40575 15.1143 5.94599 13.3236 6.90836 11.7551C7.87073 10.1866 9.22249 8.89383 10.8323 8.0023C12.4421 7.11078 14.2551 6.65088 16.0952 6.66729C17.9353 6.68371 19.7399 7.17589 21.3335 8.096ZM16.0002 13.3333C15.6465 13.3333 15.3074 13.4738 15.0574 13.7239C14.8073 13.9739 14.6668 14.313 14.6668 14.6667V16H13.3335L13.1775 16.0093C12.84 16.0495 12.5306 16.2169 12.3125 16.4776C12.0944 16.7382 11.984 17.0722 12.0039 17.4115C12.0238 17.7507 12.1726 18.0696 12.4197 18.3029C12.6668 18.5362 12.9937 18.6663 13.3335 18.6667H14.6668V20L14.6762 20.156C14.7163 20.4935 14.8838 20.8029 15.1444 21.021C15.405 21.2391 15.739 21.3495 16.0783 21.3296C16.4176 21.3096 16.7364 21.1609 16.9697 20.9138C17.203 20.6667 17.3331 20.3398 17.3335 20V18.6667H18.6668L18.8228 18.6573C19.1603 18.6172 19.4697 18.4497 19.6878 18.1891C19.9059 17.9285 20.0163 17.5944 19.9964 17.2552C19.9765 16.9159 19.8278 16.5971 19.5807 16.3638C19.3335 16.1305 19.0067 16.0004 18.6668 16H17.3335V14.6667L17.3242 14.5107C17.286 14.1863 17.13 13.8873 16.886 13.6703C16.6419 13.4533 16.3267 13.3334 16.0002 13.3333Z" fill="#A6A6A6"/>
<path d="M8.54954 4.25469C8.82374 4.05107 9.16564 3.96044 9.50471 4.00149C9.84378 4.04254 10.1542 4.21215 10.3719 4.47533C10.5895 4.73851 10.6979 5.07519 10.6747 5.41594C10.6514 5.7567 10.4983 6.07553 10.2469 6.30669L10.1175 6.41336L6.45087 9.08003C6.17676 9.28685 5.83342 9.37995 5.49238 9.33992C5.15134 9.2999 4.83889 9.12985 4.62011 8.86518C4.40133 8.60052 4.2931 8.26165 4.31795 7.91917C4.34281 7.57669 4.49884 7.257 4.75354 7.02669L4.88287 6.92003L8.54954 4.25469ZM21.5882 4.54936C21.7792 4.28673 22.0594 4.10281 22.3763 4.03211C22.6932 3.96141 23.0251 4.00879 23.3095 4.16536L23.4509 4.25469L27.1175 6.92136C27.3918 7.1208 27.5797 7.41723 27.6431 7.75033C27.7065 8.08343 27.6406 8.42817 27.4589 8.71442C27.2771 9.00066 26.9931 9.2069 26.6646 9.29117C26.3362 9.37544 25.988 9.3314 25.6909 9.16803L25.5495 9.07869L21.8829 6.41203C21.7413 6.30898 21.6214 6.17907 21.5301 6.02969C21.4387 5.88032 21.3777 5.71441 21.3504 5.54145C21.3232 5.36848 21.3303 5.19185 21.3713 5.02162C21.4123 4.8514 21.4852 4.69093 21.5882 4.54936Z" fill="#A6A6A6"/>
</svg>
