<svg width="20" height="19" viewBox="0 0 20 19" fill="none" xmlns="http://www.w3.org/2000/svg">
<path d="M10.0002 0.833252C14.7867 0.833428 18.6663 4.71375 18.6663 9.50024C18.6661 14.2866 14.7866 18.1661 10.0002 18.1663C5.21375 18.1663 1.33343 14.2867 1.33325 9.50024C1.33325 4.71364 5.21364 0.833252 10.0002 0.833252ZM10.0002 1.66626C7.92272 1.66626 5.93022 2.49215 4.46118 3.96118C2.99215 5.43022 2.16626 7.42272 2.16626 9.50024C2.16635 11.5777 2.99222 13.5703 4.46118 15.0393C5.93019 16.5081 7.92287 17.3333 10.0002 17.3333C12.0777 17.3332 14.0703 16.5083 15.5393 15.0393C17.0083 13.5703 17.8332 11.5777 17.8333 9.50024C17.8333 7.42287 17.0081 5.43019 15.5393 3.96118C14.0703 2.49222 12.0777 1.66635 10.0002 1.66626Z" fill="#585858" stroke="#585858"/>
<path fill-rule="evenodd" clip-rule="evenodd" d="M10.9167 4.91667C10.9167 4.67355 10.8201 4.44039 10.6482 4.26849C10.4763 4.09658 10.2431 4 10 4C9.75689 4 9.52373 4.09658 9.35182 4.26849C9.17991 4.44039 9.08333 4.67355 9.08333 4.91667V8.58333H5.41667C5.17355 8.58333 4.94039 8.67991 4.76849 8.85182C4.59658 9.02373 4.5 9.25689 4.5 9.5C4.5 9.74312 4.59658 9.97627 4.76849 10.1482C4.94039 10.3201 5.17355 10.4167 5.41667 10.4167H9.08333V14.0833C9.08333 14.3264 9.17991 14.5596 9.35182 14.7315C9.52373 14.9034 9.75689 15 10 15C10.2431 15 10.4763 14.9034 10.6482 14.7315C10.8201 14.5596 10.9167 14.3264 10.9167 14.0833V10.4167H14.5833C14.8264 10.4167 15.0596 10.3201 15.2315 10.1482C15.4034 9.97627 15.5 9.74312 15.5 9.5C15.5 9.25689 15.4034 9.02373 15.2315 8.85182C15.0596 8.67991 14.8264 8.58333 14.5833 8.58333H10.9167V4.91667Z" fill="#585858"/>
</svg>
