<svg width="17" height="15" viewBox="0 0 17 15" fill="none" xmlns="http://www.w3.org/2000/svg">
<path opacity="0.7" d="M7.4919 0.319064C8.09833 -0.106355 8.90173 -0.106353 9.50816 0.319065L15.6861 4.65364L15.798 4.75054C16.0327 4.99883 16.0709 5.38772 15.8703 5.68136C15.6697 5.97478 15.2971 6.07604 14.9852 5.94113L14.856 5.86794L8.67805 1.5344C8.57103 1.45932 8.42902 1.45932 8.322 1.5344L2.14402 5.86794C1.81296 6.10018 1.35905 6.01674 1.12978 5.68136C0.900585 5.3459 0.982929 4.88596 1.31391 4.65364L7.4919 0.319064Z" fill="white"/>
<path d="M7.2763 8.31361C8.03165 7.89546 8.96812 7.89546 9.72347 8.31361L9.88195 8.40975L16.429 12.7101L16.5368 12.7878C17.0476 13.2013 17.1546 13.9228 16.7642 14.4578C16.3738 14.9929 15.624 15.1523 15.0361 14.8444L14.9218 14.7759L8.49988 10.5584L2.07793 14.7759C1.47641 15.1708 0.651942 15.0284 0.235537 14.4578C-0.180762 13.8872 -0.0306627 13.1051 0.570811 12.7101L7.11782 8.40974L7.2763 8.31361Z" fill="white"/>
</svg>
