<svg width="24" height="24" viewBox="0 0 24 24" fill="none" xmlns="http://www.w3.org/2000/svg">
<path d="M21.5301 17.3804H2.46976C2.30112 17.3703 2.13222 17.3949 1.97342 17.4525C1.81462 17.5102 1.66929 17.5997 1.54634 17.7155C1.4234 17.8314 1.32544 17.9712 1.25848 18.1263C1.19152 18.2814 1.15698 18.4485 1.15698 18.6174C1.15698 18.7864 1.19152 18.9535 1.25848 19.1086C1.32544 19.2637 1.4234 19.4035 1.54634 19.5194C1.66929 19.6352 1.81462 19.7247 1.97342 19.7824C2.13222 19.84 2.30112 19.8646 2.46976 19.8545H21.5301C21.6988 19.8646 21.8677 19.84 22.0265 19.7824C22.1853 19.7247 22.3306 19.6352 22.4535 19.5194C22.5765 19.4035 22.6744 19.2637 22.7414 19.1086C22.8084 18.9535 22.8429 18.7864 22.8429 18.6174C22.8429 18.4485 22.8084 18.2814 22.7414 18.1263C22.6744 17.9712 22.5765 17.8314 22.4535 17.7155C22.3306 17.5997 22.1853 17.5102 22.0265 17.4525C21.8677 17.3949 21.6988 17.3703 21.5301 17.3804Z" fill="black"/>
<path d="M18.4103 8.38696C18.8573 8.38647 19.2961 8.50711 19.6801 8.73605C19.6382 8.38167 19.47 8.05426 19.2064 7.81382C18.9427 7.57339 18.6012 7.43604 18.2445 7.42696C18.1683 7.42762 18.0924 7.43492 18.0176 7.44878C17.9991 7.07644 17.8411 6.72471 17.5751 6.46354C17.3091 6.20238 16.9545 6.05093 16.5819 6.03932C16.315 6.04074 16.0543 6.11956 15.8314 6.26623C15.7195 6.01076 15.5367 5.79274 15.3047 5.63805C15.0727 5.48336 14.8011 5.39848 14.5223 5.3935C14.412 5.39363 14.3022 5.40681 14.195 5.43278C14.1101 5.19094 13.9562 4.97933 13.7522 4.82419C13.5482 4.66905 13.3031 4.5772 13.0474 4.56005C12.7842 4.54984 12.5245 4.62316 12.3056 4.7695C12.2088 4.59173 12.0671 4.44244 11.8947 4.33658C11.7222 4.23072 11.5249 4.17198 11.3226 4.16624C11.1203 4.16049 10.92 4.20795 10.7418 4.30386C10.5636 4.39977 10.4137 4.54077 10.307 4.71278C10.113 4.61165 9.89739 4.55924 9.67864 4.56005C9.37118 4.56505 9.07333 4.66805 8.82846 4.85406C8.58359 5.04007 8.40448 5.29937 8.31719 5.59423C8.17769 5.54135 8.03 5.51329 7.88083 5.51132C7.61391 5.51481 7.35387 5.59644 7.13285 5.74612C6.91183 5.89579 6.73951 6.10696 6.63719 6.3535C6.38416 6.33938 6.13129 6.38406 5.89843 6.48404C5.66556 6.58403 5.45902 6.73659 5.295 6.92978C5.13098 7.12297 5.01394 7.35153 4.95306 7.59753C4.89218 7.84354 4.88911 8.1003 4.9441 8.34769C4.83973 8.41358 4.74687 8.49613 4.66919 8.59205C4.96415 8.47113 5.27986 8.40888 5.59864 8.40878L18.4103 8.38696Z" fill="black"/>
<path d="M18.4092 8.95508C18.8582 8.95625 19.2931 9.11374 19.6387 9.40039C19.9841 9.68697 20.2196 10.0845 20.3037 10.5254L21.4863 16.8135H2.5127L3.7002 10.5254C3.78267 10.0845 4.01642 9.68618 4.36133 9.39941C4.70623 9.11271 5.14036 8.95566 5.58887 8.95508H18.4092Z" fill="black"/>
</svg>
