<svg width="18" height="18" viewBox="0 0 18 18" fill="none" xmlns="http://www.w3.org/2000/svg">
<path d="M13 3.07209C14.2057 3.76821 15.2088 4.76692 15.9103 5.96951C16.6118 7.1721 16.9872 8.53693 16.9996 9.92909C17.012 11.3212 16.6609 12.6925 15.9809 13.9074C15.301 15.1223 14.3157 16.1387 13.1226 16.8562C11.9295 17.5736 10.5698 17.9673 9.17794 17.9983C7.78607 18.0292 6.41021 17.6965 5.18636 17.0328C3.96251 16.3691 2.93304 15.3976 2.19971 14.2142C1.46637 13.0307 1.05457 11.6764 1.005 10.2851L1 10.0001L1.005 9.71509C1.05419 8.33584 1.45937 6.99277 2.18115 5.81642C2.90292 4.64008 3.91675 3.67046 5.12409 3.00182C6.33143 2.33318 7.69122 1.98825 9.07129 2.00056C10.4514 2.01288 11.8048 2.38201 13 3.07209ZM9 7.00009C8.73478 7.00009 8.48043 7.10545 8.29289 7.29298C8.10536 7.48052 8 7.73487 8 8.00009V9.00009H7L6.883 9.00709C6.6299 9.03719 6.39785 9.1628 6.23426 9.35826C6.07067 9.55371 5.98789 9.80425 6.00283 10.0587C6.01776 10.3131 6.1293 10.5523 6.31463 10.7272C6.49997 10.9022 6.74512 10.9998 7 11.0001H8V12.0001L8.007 12.1171C8.0371 12.3702 8.16271 12.6022 8.35817 12.7658C8.55362 12.9294 8.80416 13.0122 9.05861 12.9973C9.31305 12.9823 9.55218 12.8708 9.72715 12.6855C9.90212 12.5001 9.99972 12.255 10 12.0001V11.0001H11L11.117 10.9931C11.3701 10.963 11.6021 10.8374 11.7657 10.6419C11.9293 10.4465 12.0121 10.1959 11.9972 9.94148C11.9822 9.68704 11.8707 9.44791 11.6854 9.27294C11.5 9.09797 11.2549 9.00037 11 9.00009H10V8.00009L9.993 7.88309C9.96434 7.63984 9.84741 7.41556 9.66437 7.2528C9.48134 7.09004 9.24493 7.00012 9 7.00009Z" fill="white"/>
<path d="M3.41215 0.191052C3.61781 0.0383339 3.87423 -0.0296398 4.12853 0.00114929C4.38283 0.0319383 4.61562 0.159142 4.77889 0.356527C4.94216 0.553911 5.02346 0.806424 5.00601 1.06199C4.98857 1.31755 4.87372 1.55668 4.68515 1.73005L4.58815 1.81005L1.83815 3.81005C1.63257 3.96517 1.37507 4.03499 1.11929 4.00497C0.863506 3.97496 0.629167 3.84741 0.465083 3.64892C0.300999 3.45042 0.219824 3.19627 0.238465 2.93941C0.257106 2.68255 0.374127 2.44278 0.565151 2.27005L0.662151 2.19005L3.41215 0.191052ZM13.1912 0.412052C13.3344 0.215077 13.5445 0.0771356 13.7822 0.0241104C14.0199 -0.0289147 14.2688 0.00662186 14.4822 0.124052L14.5882 0.191052L17.3382 2.19105C17.5438 2.34063 17.6848 2.56295 17.7323 2.81278C17.7799 3.0626 17.7305 3.32116 17.5941 3.53585C17.4578 3.75053 17.2448 3.90521 16.9985 3.96841C16.7522 4.03161 16.491 3.99858 16.2682 3.87605L16.1622 3.80905L13.4122 1.80905C13.306 1.73177 13.2161 1.63433 13.1475 1.5223C13.079 1.41027 13.0333 1.28584 13.0128 1.15612C12.9924 1.02639 12.9977 0.893915 13.0285 0.766248C13.0593 0.638581 13.1139 0.518225 13.1912 0.412052Z" fill="white"/>
</svg>
