<svg width="32" height="32" viewBox="0 0 32 32" fill="none" xmlns="http://www.w3.org/2000/svg">
<path d="M22.4211 16L21.1053 11.5H14.5263L13.2105 16M18.1579 11.5V8.5C18.1579 8.10218 18.2965 7.72064 18.5433 7.43934C18.79 7.15804 19.1247 7 19.4737 7H20.7895M4 16V25H6.63158L7.94737 22.75L11.2041 24.6063C11.6567 24.8643 12.1687 25 12.6897 25H25.0526C26.0995 25 27.1036 24.5259 27.8438 23.682C28.5841 22.8381 29 21.6935 29 20.5C29 19.3065 28.5841 18.1619 27.8438 17.318C27.1036 16.4741 26.0995 16 25.0526 16H12.6897C12.1687 16 11.6567 16.1357 11.2041 16.3937L7.94737 18.25L6.63158 16H4Z" stroke="#A6A6A6" stroke-width="2" stroke-linecap="round" stroke-linejoin="round"/>
<path d="M4.1665 15.6667V25H6.79808L8.11387 22.6667L11.355 24.5826C11.8174 24.8558 12.3446 25 12.8816 25H25.2191C26.266 25 27.2701 24.5083 28.0103 23.6332C28.7506 22.758 29.1665 21.571 29.1665 20.3333C29.1665 19.0957 28.7506 17.9087 28.0103 17.0335C27.2701 16.1583 26.266 15.6667 25.2191 15.6667H12.8816C12.3446 15.6667 11.8174 15.8108 11.355 16.0841L8.11387 18L6.79808 15.6667H4.1665ZM22.5876 15.6667L21.2718 11H14.6928L13.377 15.6667" fill="#A6A6A6"/>
</svg>
